<svg width="13" height="13" viewBox="0 0 13 13" fill="none" xmlns="http://www.w3.org/2000/svg">
<path d="M6.5 13C10.0902 13 13 10.0902 13 6.5C13 2.90977 10.0902 0 6.5 0C2.90977 0 0 2.90977 0 6.5C0 10.0902 2.90977 13 6.5 13ZM9.36914 5.30664L6.11914 8.55664C5.88047 8.79531 5.49453 8.79531 5.2584 8.55664L3.6334 6.93164C3.39473 6.69297 3.39473 6.30703 3.6334 6.0709C3.87207 5.83477 4.25801 5.83223 4.49414 6.0709L5.6875 7.26426L8.50586 4.44336C8.74453 4.20469 9.13047 4.20469 9.3666 4.44336C9.60273 4.68203 9.60527 5.06797 9.3666 5.3041L9.36914 5.30664Z" fill="#9EC94A"/>
</svg>
