<svg width="17" height="17" viewBox="0 0 17 17" fill="none" xmlns="http://www.w3.org/2000/svg">
<path d="M16.5558 1.17131C16.8714 1.39006 17.037 1.76819 16.9777 2.14632L14.9776 15.1465C14.9308 15.4497 14.7464 15.7153 14.4776 15.8653C14.2089 16.0153 13.887 16.034 13.6026 15.9153L9.86506 14.3621L7.7244 16.6778C7.44627 16.9809 7.00876 17.0809 6.62438 16.9309C6.24 16.7809 5.99 16.409 5.99 15.9965V13.384C5.99 13.259 6.03687 13.1402 6.12125 13.0496L11.3588 7.3339C11.5401 7.13702 11.5338 6.83389 11.3463 6.64639C11.1588 6.45889 10.8557 6.44639 10.6588 6.62452L4.30247 12.2715L1.54305 10.8902C1.2118 10.7246 0.999294 10.3933 0.989919 10.0246C0.980544 9.65581 1.1743 9.31206 1.49305 9.12768L15.4933 1.12756C15.8276 0.936929 16.2402 0.955679 16.5558 1.17131Z" fill="white"/>
</svg>
